<svg width="40" height="40" viewBox="0 0 40 40" fill="none" xmlns="http://www.w3.org/2000/svg">
<path d="M17.5 12.5C17.5 13.8807 18.6193 15 20 15C21.3807 15 22.5 13.8807 22.5 12.5V2.5C22.5 1.11929 21.3807 0 20 0C18.6193 0 17.5 1.11929 17.5 2.5V12.5Z" fill="#0A0D12"/>
<path d="M17.5 37.5C17.5 38.8807 18.6193 40 20 40C21.3807 40 22.5 38.8807 22.5 37.5V27.5C22.5 26.1193 21.3807 25 20 25C18.6193 25 17.5 26.1193 17.5 27.5V37.5Z" fill="#0A0D12"/>
<path d="M23.5362 16.4645C22.5599 15.4881 22.5599 13.9052 23.5362 12.9289L30.6072 5.85785C31.5835 4.88154 33.1665 4.88154 34.1428 5.85786C35.1191 6.83417 35.1191 8.41708 34.1428 9.39339L27.0717 16.4645C26.0954 17.4408 24.5125 17.4408 23.5362 16.4645Z" fill="#0A0D12"/>
<path d="M5.8585 30.6066C4.88219 31.5829 4.88219 33.1658 5.8585 34.1421C6.83481 35.1184 8.41772 35.1184 9.39403 34.1421L16.4651 27.0711C17.4414 26.0947 17.4414 24.5118 16.4651 23.5355C15.4888 22.5592 13.9059 22.5592 12.9296 23.5355L5.8585 30.6066Z" fill="#0A0D12"/>
<path d="M23.5358 23.5356C24.5121 22.5592 26.095 22.5592 27.0713 23.5356L34.1424 30.6066C35.1187 31.5829 35.1187 33.1658 34.1424 34.1422C33.1661 35.1185 31.5832 35.1185 30.6069 34.1422L23.5358 27.0711C22.5595 26.0948 22.5595 24.5119 23.5358 23.5356Z" fill="#0A0D12"/>
<path d="M9.39365 5.85789C8.41734 4.88158 6.83443 4.88158 5.85812 5.85789C4.88181 6.8342 4.88181 8.41711 5.85812 9.39342L12.9292 16.4645C13.9055 17.4408 15.4884 17.4408 16.4647 16.4645C17.441 15.4882 17.441 13.9053 16.4647 12.929L9.39365 5.85789Z" fill="#0A0D12"/>
<path d="M25 20C25 18.6193 26.1193 17.5 27.5 17.5H37.5C38.8807 17.5 40 18.6193 40 20C40 21.3807 38.8807 22.5 37.5 22.5H27.5C26.1193 22.5 25 21.3807 25 20Z" fill="#0A0D12"/>
<path d="M2.5 17.5C1.11929 17.5 0 18.6193 0 20C0 21.3807 1.11929 22.5 2.5 22.5L12.5 22.5C13.8807 22.5 15 21.3807 15 20C15 18.6193 13.8807 17.5 12.5 17.5L2.5 17.5Z" fill="#0A0D12"/>
</svg>
